<?xml version="1.0" encoding="UTF-8" standalone="no"?>
<svg
   height="500"
   viewBox="0 -960 20000 20000"
   width="500"
   fill="#ffffff"
   version="1.1"
   id="svg4"
   xmlns="http://www.w3.org/2000/svg"
   xmlns:svg="http://www.w3.org/2000/svg">
  <defs
     id="defs8" />
  <path
     d="m 2000,19040 q -825,0 -1412.5,-587.5 Q 0,17865 0,17040 V 3040 Q 0,2215 587.5,1627.5 1175,1040 2000,1040 H 3000 V -960 h 2000 v 2000 h 8000 V -960 h 2000 v 2000 h 1000 q 825,0 1412.5,587.5 Q 18000,2215 18000,3040 V 8040 H 16000 V 7040 H 2000 v 10000 h 7000 v 2000 z m 0,-14000 H 16000 V 3040 H 2000 Z m 0,0 V 3040 Z m 9000,14000 v -3075 l 5525,-5500 q 225,-225 500,-325 275,-100 550,-100 300,0 575,112.5 275,112.5 500,337.5 l 925,925 q 200,225 312.5,500 112.5,275 112.5,550 0,275 -100,562.5 -100,287.5 -325,512.5 l -5500,5500 z m 7500,-6575 -925,-925 z m -6000,5075 h 950 l 3025,-3050 -450,-475 -475,-450 -3050,3025 z m 3525,-3525 -475,-450 925,925 z"
     id="path2"
     style="fill:#ffffff;fill-opacity:1;stroke-width:25" />
</svg>
