<?xml version="1.0" encoding="UTF-8" standalone="no"?>
<!-- Created with Inkscape (http://www.inkscape.org/) -->

<svg
   width="300"
   height="300"
   viewBox="0 0 79.374998 79.375"
   version="1.1"
   id="svg5"
   sodipodi:docname="favicon.svg"
   inkscape:version="1.2.2 (b0a8486541, 2022-12-01)"
   xmlns:inkscape="http://www.inkscape.org/namespaces/inkscape"
   xmlns:sodipodi="http://sodipodi.sourceforge.net/DTD/sodipodi-0.dtd"
   xmlns="http://www.w3.org/2000/svg"
   xmlns:svg="http://www.w3.org/2000/svg">
  <sodipodi:namedview
     id="namedview27"
     pagecolor="#ffffff"
     bordercolor="#000000"
     borderopacity="0.25"
     inkscape:showpageshadow="2"
     inkscape:pageopacity="0.0"
     inkscape:pagecheckerboard="0"
     inkscape:deskcolor="#d1d1d1"
     showgrid="false"
     inkscape:zoom="1.9586858"
     inkscape:cx="170.26723"
     inkscape:cy="153.4192"
     inkscape:window-width="1920"
     inkscape:window-height="1019"
     inkscape:window-x="0"
     inkscape:window-y="0"
     inkscape:window-maximized="1"
     inkscape:current-layer="svg5" />
  <defs
     id="defs2" />
  <rect
     style="fill:#0076c4;fill-opacity:1;stroke-width:2.62019"
     id="rect6205"
     width="79.375"
     height="79.375"
     x="0"
     y="0" />
  <path
     d="m 17.462499,67.468748 q -2.291953,0 -3.924101,-1.632153 Q 11.90625,64.20445 11.90625,61.9125 V 23.018749 q 0,-2.291953 1.632148,-3.924102 1.632148,-1.632147 3.924101,-1.632147 h 2.778125 v -5.55625 h 5.556251 v 5.55625 h 22.224999 v -5.55625 h 5.556251 v 5.55625 h 2.778124 q 2.291953,0 3.924102,1.632147 1.632148,1.632149 1.632148,3.924102 v 13.890625 h -5.55625 v -2.778125 h -38.89375 v 27.781252 h 19.446876 v 5.556248 z m 0,-38.893749 h 38.89375 v -5.55625 h -38.89375 z m 0,0 v -5.55625 z M 42.465624,67.468748 V 58.926015 L 57.814765,43.646327 q 0.625077,-0.625078 1.389063,-0.902891 0.763984,-0.277813 1.527968,-0.277813 0.833438,0 1.597422,0.31254 0.763985,0.312539 1.389062,0.937617 l 2.569766,2.569766 q 0.555625,0.625078 0.868164,1.389062 0.312539,0.763985 0.312539,1.52797 0,0.763983 -0.277812,1.562694 -0.277812,0.798712 -0.902891,1.423789 L 51.008358,67.468748 Z M 63.301563,49.202577 60.731796,46.632811 Z M 46.632812,63.301563 h 2.639219 l 8.403829,-8.473283 -1.250158,-1.319609 -1.31961,-1.250157 -8.47328,8.403828 z m 9.79289,-9.792892 -1.31961,-1.250157 2.569768,2.569766 z"
     id="path2"
     style="fill:#ffffff;fill-opacity:1;stroke-width:0.0694534" />
</svg>
